<?xml version="1.0" encoding="utf-8"?>
<svg viewBox="0 0 500 500" xmlns="http://www.w3.org/2000/svg">
  <path d="M 409.278 366.198 C 412.013 363.619 413.381 287.664 410.646 280.234 C 407.911 272.805 364.089 247.998 364.089 247.998 C 364.089 247.998 361.679 230.376 359.791 216.806 C 357.903 203.236 349.047 177.385 325.02 133.667 C 300.992 89.948 276.509 75.58 271.039 75.826 C 257.945 77.999 245.892 83.992 236.594 92.957 C 212.729 116.253 194.087 143.841 181.767 174.07 C 173.4 196.604 169.148 220.318 169.2 244.191 C 153.963 252.419 121.991 273.112 118.736 278.515 C 115.48 283.919 121.405 368.838 121.666 370.066 C 121.926 371.294 139.898 371.908 155.591 363.189 C 168.21 355.01 179.618 345.29 189.516 334.269 C 189.516 334.269 199.543 352.689 201.757 356.251 C 203.971 359.812 210.938 361.408 210.938 361.408 C 210.938 361.408 213.413 370.066 214.455 372.154 C 215.496 374.242 221.813 374.426 221.813 374.426 C 221.813 374.426 227.478 392.847 227.803 393.645 C 231.085 394.425 234.451 394.854 237.831 394.934 C 234.855 398.735 233.077 403.248 232.687 407.952 C 232.687 414.583 240.826 418.697 251.375 421.521 C 258.088 423.566 263.467 428.343 266.026 434.539 C 267.562 435.896 269.698 436.467 271.756 436.074 C 274.425 436.074 275.011 430.67 283.932 425.083 C 292.853 419.495 304.313 422.258 312.713 412.802 C 321.113 403.346 308.611 391.311 308.611 391.311 C 311.723 391.625 314.862 391.354 317.857 390.513 C 319.745 389.469 318.508 373.136 318.508 373.136 C 323.45 373.032 328.367 372.418 333.159 371.294 C 335.373 370.066 334.006 355.944 334.006 355.944 C 336.324 355.637 338.544 354.863 340.517 353.672 C 343.31 349.619 345.505 345.217 347.029 340.593 C 351.463 346.506 357.304 351.345 364.089 354.716 C 376.46 361.838 406.544 368.777 409.278 366.198 Z" fill="#1d1d1b" style=""/>
  <path d="M 131.173 282.568 C 132.345 279.989 168.353 257.208 168.874 258.744 C 169.773 272.442 171.772 286.049 174.865 299.453 C 179.488 314.313 183.525 324.014 182.744 324.014 C 181.962 324.014 164.837 305.594 163.209 306.392 C 161.581 307.19 158.586 310.751 159.433 312.041 C 160.279 313.33 176.753 328.927 175.711 330.462 C 174.669 331.997 168.744 337.523 168.744 337.523 C 164.381 330.677 159.53 324.113 154.223 317.874 C 152.921 317.874 148.298 322.479 149.34 324.014 C 150.382 325.549 163.991 339.856 162.688 341.882 C 161.484 343.54 160.11 345.088 158.586 346.488 C 154.809 341.661 150.629 337.124 146.084 332.918 C 145.042 332.918 140.94 336.295 142.047 338.076 C 143.154 339.856 153.702 348.575 151.293 350.356 C 148.884 352.137 133.647 359.812 133.647 358.031 C 133.647 356.251 129.675 286.129 131.173 282.568 Z" fill="#cbe7f5" style=""/>
  <path d="M 365.847 261.814 C 367.064 277.342 365.788 292.951 362.07 308.111 C 356.079 326.041 353.931 330.155 353.931 330.155 C 359.758 336.381 366.309 341.962 373.465 346.795 C 381.084 350.381 389.392 352.468 397.883 352.935 C 397.883 352.935 398.73 287.91 397.883 286.927 C 397.037 285.945 368.321 263.103 365.847 261.814 Z" fill="#cbe7f5" style=""/>
  <path d="M 381.084 304.55 C 382.711 305.041 388.963 308.664 389.483 310.69 C 390.004 312.716 389.483 316.83 388.376 316.83 C 384.593 315.136 381.116 312.876 378.088 310.137 C 377.567 308.111 381.084 304.55 381.084 304.55 Z" fill="#1d1d1b" style=""/>
  <path d="M 374.572 316.585 C 374.572 314.681 391.111 326.777 391.372 328.865 C 391.632 330.953 391.372 335.497 390.59 335.005 C 389.809 334.514 372.098 324.014 372.098 321.681 C 372.098 319.348 374.572 316.83 374.572 316.585 Z" fill="#1d1d1b" style=""/>
  <path d="M 369.428 328.313 C 377.02 332.451 383.988 337.529 390.135 343.418 C 390.135 345.198 391.242 348.023 388.832 348.023 C 380.784 344.087 373.302 339.199 366.563 333.47 C 365.847 331.935 368.582 328.313 369.428 328.313 Z" fill="#1d1d1b" style=""/>
  <path d="M 213.673 350.11 C 213.673 350.11 191.143 312.471 185.999 285.883 C 180.855 259.296 178.967 225.77 188.278 197.095 C 193.468 178.81 201.217 161.261 211.329 144.903 C 228.78 135.159 248.907 130.523 269.151 131.579 C 301.709 133.114 310.108 139.807 312.257 141.035 C 329.239 167.297 341.272 196.131 347.81 226.262 C 352.186 251.148 352.472 276.52 348.656 301.48 C 348.656 301.48 340.257 290.489 338.629 290.98 C 337.001 291.471 334.266 293.313 335.633 294.848 C 339.957 299.466 343.851 304.415 347.289 309.646 C 346.566 312.293 345.563 314.865 344.294 317.321 C 340.302 311.722 335.952 306.349 331.271 301.234 C 330.164 301.234 326.127 301.971 326.908 304.059 C 327.689 306.146 342.666 323.462 342.666 326.041 C 341.044 331.855 338.088 337.265 334.006 341.882 C 331.531 343.172 313.625 346.242 312.518 348.575 C 311.411 350.909 310.629 356.251 312.518 356.742 C 314.406 357.233 328.536 356.742 328.536 358.523 C 328.536 360.303 329.057 365.707 328.536 365.952 C 309.438 369.035 290.092 370.49 270.714 370.312 C 237.375 370.312 222.724 370.312 221.878 369.022 C 221.031 367.733 219.208 361.347 220.25 361.593 C 221.292 361.838 234.901 363.619 241.998 363.926 C 249.096 364.233 251.179 363.926 251.765 363.128 C 251.498 360.272 250.912 357.454 250.007 354.716 C 250.007 354.716 218.557 352.628 213.673 350.11 Z" fill="#e7413e" style=""/>
  <g fill="#1d1d1b" transform="matrix(6.511489, 0, 0, 6.140246, 58.048798, 66.127068)" style="">
    <path d="m39.15 40.45c0-.24.62-.41.79-.33a12.7 12.7 0 0 1 2.06 2.88c0 .34-.29.8-.58.63a18.05 18.05 0 0 1 -2.27-3.18z"/>
    <path d="m37.57 41.2c.2.09 2.79 2.67 2.62 2.92s-.71.67-.83.54-2.63-2.46-2.54-2.79.75-.67.75-.67z"/>
    <path d="m35.19 42.58a19.63 19.63 0 0 1 3.21 2.83c0 .21-.42.67-.67.59a18.89 18.89 0 0 1 -3.21-2.67c.05-.25.48-.79.67-.75z"/>
    <path d="m33.32 44.25c.21-.22 3.16 2 3.08 2.29s0 .66-.46.58a12.56 12.56 0 0 1 -3.25-2c0-.21.58-.83.63-.87z"/>
    <path d="m22.27 19a21.29 21.29 0 0 1 .63-2.88 6.64 6.64 0 0 1 1.1-2.67c.17-.08 1-.29 1-.08a22.37 22.37 0 0 0 -1.29 3.38c-.25 1.37-.12 1.79-.37 2a2.91 2.91 0 0 1 -1.07.25z"/>
  </g>
  <path d="M 219.924 129.307 C 220.966 126.974 251.114 87.86 267.653 87.062 C 284.193 86.264 304.574 128.755 302.36 129.062 C 288.861 123.646 274.002 121.939 259.514 124.149 C 230.473 127.526 219.924 129.307 219.924 129.307 Z" fill="#cbe7f5" style=""/>
  <path d="M 239.459 118.316 C 237.635 117.579 255.737 98.36 258.993 98.053 C 262.249 97.746 261.728 100.387 262.509 102.658 C 263.291 104.93 254.63 110.088 251.114 114.202 C 247.598 118.316 247.859 119.299 245.97 119.851 C 243.704 119.833 241.471 119.305 239.459 118.316 Z" fill="#1d1d1b" style=""/>
  <path d="M 217.71 190.464 C 239.133 170.999 281.197 164.061 306.722 184.324 C 332.247 204.587 340.126 230.13 332.247 260.279 C 324.369 290.427 291.551 307.129 254.63 300.19 C 226.937 296.211 204.368 277.146 197.134 251.621 C 192.27 229.252 200.058 206.103 217.71 190.464 Z" fill="#1d1d1b" style=""/>
  <path d="M 222.529 195.069 C 241.738 177.569 279.635 171.306 302.555 189.727 C 324.492 205.851 333.628 233.04 325.541 258.13 C 318.508 285.331 288.881 300.313 255.737 294.111 C 230.805 290.489 210.496 273.314 203.971 250.331 C 199.465 230.118 206.504 209.155 222.529 195.069 Z" fill="#fab900" style=""/>
  <path d="M 238.091 210.358 C 250.333 199.183 274.425 195.253 289.076 206.981 C 302.939 217.229 308.728 234.428 303.662 250.331 C 299.169 267.647 280.351 277.164 259.189 273.235 C 243.333 270.895 230.421 259.972 226.24 245.358 C 223.48 232.543 227.966 219.292 238.091 210.358 Z" fill="#1d1d1b" style=""/>
  <path d="M 246.231 218.341 C 256.017 209.609 270.981 208.608 281.979 215.946 C 291.831 223.179 295.926 235.392 292.267 246.647 C 289.076 258.928 275.858 265.436 261.077 262.673 C 249.949 261.046 240.872 253.395 237.896 243.147 C 235.864 234.072 239.029 224.659 246.231 218.341 Z" fill="#85bfe9" style=""/>
  <path d="M 263.747 181.745 C 269.919 179.915 275.871 185.073 274.471 191.023 C 274.393 191.354 274.289 191.68 274.165 191.999 C 272.016 197.832 261.663 197.587 259.254 194.762 C 255.243 190.188 257.645 183.219 263.747 181.745 Z" fill="#1d1d1b" style=""/>
  <path d="M 264.984 185.92 C 267.601 185.104 270.18 187.265 269.62 189.813 C 269.587 189.973 269.535 190.126 269.477 190.28 C 268.565 192.797 264.137 192.674 262.965 191.508 C 261.272 189.512 262.347 186.528 264.984 185.92 Z" fill="#f2910d" style=""/>
  <path d="M 297.802 194.517 C 303.975 192.687 309.926 197.845 308.526 203.794 C 308.448 204.126 308.344 204.451 308.22 204.771 C 306.071 210.911 295.718 210.42 293.309 207.595 C 289.22 203.015 291.642 195.972 297.802 194.517 Z" fill="#1d1d1b" style=""/>
  <path d="M 298.974 198.692 C 301.591 197.875 304.17 200.037 303.61 202.585 C 303.577 202.744 303.525 202.898 303.467 203.051 C 302.555 205.569 298.127 205.508 296.955 204.28 C 295.262 202.284 296.337 199.3 298.974 198.692 Z" fill="#f2910d" style=""/>
  <path d="M 315.122 226.753 C 321.276 224.874 327.279 229.97 325.938 235.939 C 325.853 236.301 325.742 236.657 325.606 237.007 C 323.392 243.147 313.104 242.656 310.629 239.832 C 306.625 235.233 309.021 228.269 315.122 226.753 Z" fill="#1d1d1b" style=""/>
  <path d="M 316.425 230.928 C 319.042 230.112 321.621 232.273 321.061 234.821 C 321.028 234.981 320.976 235.134 320.917 235.288 C 319.615 237.504 316.516 238.088 314.406 236.516 C 312.713 234.52 313.787 231.536 316.425 230.928 Z" fill="#f2910d" style=""/>
  <path d="M 306.201 260.77 C 312.374 258.94 318.326 264.098 316.926 270.048 C 316.848 270.379 316.744 270.705 316.62 271.024 C 314.471 277.164 304.118 276.673 301.709 273.849 C 297.704 269.249 300.1 262.286 306.201 260.77 Z" fill="#1d1d1b" style=""/>
  <path d="M 307.504 264.945 C 310.141 264.184 312.667 266.394 312.049 268.93 C 312.023 269.059 311.984 269.182 311.932 269.305 C 311.02 271.822 306.592 271.761 305.42 270.533 C 303.727 268.519 304.841 265.522 307.504 264.945 Z" fill="#f2910d" style=""/>
  <path d="M 275.532 277.533 C 281.705 275.703 287.657 280.861 286.257 286.811 C 286.179 287.142 286.074 287.468 285.951 287.787 C 283.802 293.927 273.514 293.436 271.039 290.611 C 267.035 286.012 269.431 279.049 275.532 277.533 Z" fill="#1d1d1b" style=""/>
  <path d="M 276.835 281.708 C 279.394 280.867 281.959 282.948 281.458 285.454 C 281.412 285.669 281.347 285.871 281.262 286.068 C 280.351 288.585 275.923 288.524 274.751 287.296 C 273.058 285.282 274.171 282.285 276.835 281.708 Z" fill="#f2910d" style=""/>
  <path d="M 241.868 272.313 C 248.021 270.435 254.025 275.531 252.684 281.499 C 252.599 281.862 252.488 282.218 252.351 282.568 C 250.138 288.708 239.849 288.155 237.375 285.331 C 233.442 280.738 235.825 273.849 241.868 272.313 Z" fill="#1d1d1b" style=""/>
  <path d="M 243.17 276.489 C 245.788 275.672 248.366 277.834 247.806 280.382 C 247.774 280.541 247.722 280.695 247.663 280.848 C 246.361 283.065 243.261 283.648 241.152 282.076 C 239.459 280.081 240.533 277.097 243.17 276.489 Z" fill="#f2910d" style=""/>
  <path d="M 218.427 251.989 C 224.521 250.104 230.499 255.145 229.19 261.071 C 229.105 261.445 228.988 261.82 228.845 262.182 C 226.696 268.322 216.408 267.831 213.934 265.007 C 209.923 260.432 212.325 253.463 218.427 251.989 Z" fill="#1d1d1b" style=""/>
  <path d="M 219.729 256.103 C 222.36 255.323 224.906 257.515 224.306 260.051 C 224.274 260.217 224.222 260.371 224.157 260.524 C 223.245 263.042 218.817 262.919 217.645 261.691 C 215.952 259.677 217.066 256.68 219.729 256.103 Z" fill="#f2910d" style=""/>
  <path d="M 212.176 223.928 C 218.348 222.099 224.3 227.256 222.9 233.206 C 222.822 233.538 222.718 233.863 222.594 234.183 C 220.445 240.323 210.157 239.832 207.683 237.007 C 203.678 232.408 206.074 225.445 212.176 223.928 Z" fill="#1d1d1b" style=""/>
  <path d="M 213.478 228.104 C 216.037 227.262 218.602 229.344 218.101 231.849 C 218.055 232.064 217.99 232.267 217.906 232.463 C 216.994 234.981 212.566 234.919 211.394 233.691 C 209.701 231.677 210.815 228.681 213.478 228.104 Z" fill="#f2910d" style=""/>
  <path d="M 228.585 194.394 C 234.757 192.564 240.709 197.722 239.309 203.672 C 239.231 204.003 239.127 204.329 239.003 204.648 C 236.854 210.788 226.566 210.236 224.092 207.472 C 220.087 202.873 222.483 195.91 228.585 194.394 Z" fill="#1d1d1b" style=""/>
  <path d="M 229.887 198.569 C 232.504 197.752 235.083 199.914 234.523 202.462 C 234.49 202.622 234.438 202.775 234.38 202.929 C 233.403 205.446 229.04 205.323 227.868 204.157 C 226.175 202.161 227.25 199.177 229.887 198.569 Z" fill="#f2910d" style=""/>
  <path d="M 229.757 376.022 C 229.757 374.487 250.072 376.82 274.1 376.022 C 298.127 375.224 311.346 373.75 311.736 374.487 C 312.127 375.224 311.346 386.399 311.346 386.399 C 311.346 386.399 303.402 383.145 272.277 385.417 C 241.152 387.689 234.184 389.101 233.208 388.303 C 231.606 384.336 230.447 380.222 229.757 376.022 Z" fill="#f2910d" style=""/>
  <path d="M 243.756 394.075 C 244.538 393.706 255.803 393.338 255.803 393.338 C 254.578 397.065 255.959 401.117 259.254 403.469 C 264.919 408.074 269.607 407.522 270.649 409.609 C 271.691 411.697 271.235 413.846 273.058 414.215 C 274.549 414.669 276.184 414.202 277.16 413.048 C 278.137 411.943 279.179 406.908 282.435 406.908 C 285.69 406.908 293.244 408.873 295.848 404.452 C 297.463 401.025 297.964 397.218 297.281 393.522 C 299.189 393.325 301.109 393.325 303.011 393.522 C 304.834 393.89 311.932 403.285 306.853 408.873 C 301.774 414.46 285.951 415.75 277.746 421.706 C 274.823 423.701 272.101 425.936 269.607 428.399 C 266.703 422.455 261.227 417.979 254.565 416.118 C 242.324 411.943 239.915 410.776 239.719 407.522 C 239.524 404.267 240.37 395.794 243.756 394.075 Z" fill="#ffe19b" style=""/>
  <path d="M 262.314 392.908 C 270.942 391.729 279.648 391.213 288.36 391.373 C 290.183 392.171 292.202 396.96 289.988 398.311 C 287.774 399.662 280.025 400.829 277.746 402.917 C 275.467 405.004 275.728 405.987 274.686 405.618 C 271.463 404.378 268.454 402.677 265.765 400.583 C 262.705 397.697 261.468 393.522 262.314 392.908 Z" fill="#fab900" style=""/>
</svg>